<?xml version="1.0" standalone="no"?>
<!DOCTYPE svg PUBLIC "-//W3C//DTD SVG 20010904//EN"
 "http://www.w3.org/TR/2001/REC-SVG-20010904/DTD/svg10.dtd">
<svg version="1.0" xmlns="http://www.w3.org/2000/svg"
 width="300.000000pt" height="143.000000pt" viewBox="0 0 300.000000 143.000000"
 preserveAspectRatio="xMidYMid meet">
<metadata>
Created by potrace 1.10, written by Peter Selinger 2001-2011
</metadata>
<g transform="translate(0.000000,143.000000) scale(0.100000,-0.100000)"
fill="#000000" stroke="none">
<path d="M575 1254 c-72 -43 -179 -106 -240 -141 -160 -93 -159 -91 -158 -210
0 -111 2 -348 3 -378 0 -11 0 -43 0 -71 0 -66 16 -82 157 -159 59 -32 143 -80
186 -107 43 -26 83 -46 88 -42 5 3 9 -2 9 -10 0 -9 3 -15 8 -15 4 1 10 0 15
-1 4 -1 10 -3 15 -4 4 -1 20 -10 36 -21 37 -24 41 -23 267 110 262 153 309
184 309 205 0 12 -37 50 -48 50 -6 0 -13 6 -15 13 -4 8 -6 8 -6 0 -1 -6 -10
-9 -21 -6 -11 3 -28 2 -37 -2 -10 -5 -21 -7 -25 -7 -5 1 -8 -3 -8 -8 0 -6 -9
-10 -21 -10 -11 0 -18 -4 -15 -9 4 -6 -31 -29 -54 -34 -3 -1 -49 -27 -103 -59
-53 -32 -101 -58 -105 -58 -4 0 -18 -9 -32 -20 -38 -30 -63 -25 -166 35 -53
30 -101 55 -109 55 -7 0 -15 7 -19 15 -3 8 -14 15 -25 15 -11 0 -21 4 -23 8
-1 5 -28 23 -59 40 -40 23 -59 40 -63 59 -13 49 -7 444 7 457 6 7 41 29 77 50
36 21 83 50 105 66 41 28 124 77 182 107 l32 16 218 -121 c215 -120 218 -122
255 -110 47 14 72 40 64 66 -7 22 -77 72 -101 72 -9 0 -14 4 -11 9 4 5 -7 12
-24 16 -16 4 -32 10 -35 15 -3 4 -40 28 -83 51 -42 24 -86 49 -97 56 -38 23
-74 39 -95 42 -5 0 -10 7 -10 14 0 12 -59 37 -86 37 -5 0 -68 -34 -139 -76z
m202 17 c27 -15 142 -81 257 -146 187 -106 207 -120 191 -131 -16 -12 -23 -11
-49 5 -91 55 -446 251 -454 251 -6 0 -81 -42 -169 -94 -87 -51 -191 -112 -230
-135 l-73 -42 0 -277 1 -277 232 -130 c127 -72 237 -131 243 -133 11 -3 382
209 454 259 21 14 29 15 49 5 23 -13 22 -13 -25 -41 -27 -15 -144 -84 -261
-152 l-211 -124 -261 148 -261 148 0 300 0 301 43 22 c23 11 136 77 252 146
116 69 213 125 217 125 4 1 29 -12 55 -28z m172 -162 c223 -125 238 -135 229
-144 -3 -3 -59 25 -124 63 -262 151 -325 184 -342 177 -9 -3 -111 -61 -226
-128 l-208 -122 6 -180 c3 -99 6 -214 6 -255 l0 -76 212 -119 c117 -66 217
-121 223 -123 6 -1 63 27 126 64 63 37 151 89 196 115 45 26 93 55 107 64 13
9 27 12 30 7 6 -11 -441 -274 -458 -270 -6 2 -111 59 -233 128 l-221 124 -4
261 c-2 143 -1 265 4 270 13 16 431 263 447 264 7 1 111 -54 230 -120z"/>
<path d="M2337 1013 c-4 -3 -7 -38 -7 -77 0 -39 -4 -78 -10 -86 -6 -9 -5 -17
2 -21 9 -6 8 -12 -1 -23 -7 -8 -12 -23 -11 -33 1 -10 2 -23 1 -30 -1 -13 -59
-35 -72 -27 -5 2 -25 6 -45 8 -45 3 -54 18 -52 80 2 73 -6 76 -186 71 -83 -3
-189 -4 -236 -2 -75 2 -438 0 -465 -3 -5 0 -30 2 -55 6 -62 8 -85 -16 -86 -92
0 -30 3 -54 8 -54 4 0 3 -11 -3 -24 -10 -20 -8 -30 10 -54 11 -17 21 -42 21
-55 0 -34 36 -60 62 -46 14 7 23 7 34 -2 11 -9 21 -8 46 2 24 10 33 10 36 1 5
-16 47 -15 81 3 26 13 30 13 41 0 14 -17 71 -20 87 -4 8 8 17 8 31 0 27 -14
107 -14 134 0 14 8 23 8 31 0 6 -6 42 -11 80 -11 62 0 71 3 97 29 20 20 27 35
23 50 -3 12 -1 21 5 21 6 0 12 -19 14 -42 3 -41 4 -43 46 -51 29 -6 48 -5 57
3 10 8 19 8 34 1 27 -15 154 -14 169 1 8 8 18 9 35 1 16 -7 29 -8 41 -1 13 7
25 6 41 -2 14 -7 29 -9 37 -4 20 13 48 15 48 4 0 -6 7 -10 15 -10 8 0 15 7 15
15 0 8 -9 15 -20 15 -17 0 -20 6 -17 47 2 43 0 48 -20 49 -21 1 -23 -3 -23
-47 0 -37 -4 -49 -15 -49 -12 0 -15 13 -15 59 l0 60 90 3 90 3 0 -47 c0 -47 1
-48 30 -48 29 0 30 1 27 45 -1 24 3 45 8 47 11 3 24 -97 14 -113 -3 -6 -28 -9
-55 -7 l-49 3 -5 45 c-4 37 -9 45 -25 45 -16 0 -20 -7 -18 -33 2 -56 12 -82
28 -76 8 4 15 2 15 -3 0 -14 96 -16 118 -2 13 8 24 9 37 1 13 -7 26 -7 42 1
17 8 27 7 35 -1 19 -19 102 -15 120 6 18 20 19 135 2 152 -6 6 -41 12 -77 14
-37 1 -68 4 -70 7 -16 18 -27 87 -27 168 0 62 -4 101 -12 109 -13 13 -349 18
-361 5z m337 -9 c13 -5 16 -25 16 -110 l0 -104 -172 2 -173 3 -3 94 c-2 60 1
98 9 107 9 11 45 14 159 14 82 0 155 -3 164 -6z m-1426 -176 c3 -14 -3 -15
-37 -11 -26 4 -41 2 -41 -5 0 -6 17 -12 38 -14 35 -3 37 -5 37 -38 l0 -35 -50
0 c-39 0 -50 4 -53 17 -3 16 2 17 42 12 30 -5 46 -3 46 4 0 6 -19 12 -42 14
-36 3 -44 7 -46 26 -6 44 4 53 55 50 35 -2 49 -7 51 -20z m126 6 c11 -29 6
-91 -8 -103 -8 -7 -32 -11 -53 -9 -38 3 -38 3 -41 52 -2 27 -1 55 2 62 8 21
92 19 100 -2z m268 -26 c4 -59 28 -63 28 -4 0 33 4 46 14 46 10 0 16 -13 18
-42 4 -59 28 -63 28 -4 0 34 4 46 15 46 21 0 20 -78 -1 -108 -16 -24 -40 -29
-46 -11 -3 8 -10 8 -26 -2 -21 -13 -25 -12 -42 11 -11 14 -20 37 -20 53 0 20
-5 27 -20 27 -17 0 -20 -7 -20 -50 0 -38 -4 -50 -15 -50 -11 0 -15 12 -15 50
l0 50 -60 0 c-33 0 -60 -4 -60 -10 0 -5 16 -10 35 -10 24 0 35 -5 35 -15 0
-10 -11 -15 -35 -15 -31 0 -35 -3 -35 -25 0 -16 -6 -25 -15 -25 -12 0 -15 14
-15 65 l0 65 124 0 125 0 3 -42z m238 -23 c0 -51 -3 -65 -15 -65 -8 0 -15 9
-15 20 0 15 -7 20 -25 20 -18 0 -25 -5 -25 -20 0 -11 -7 -20 -15 -20 -11 0
-15 12 -15 47 0 60 20 83 72 83 l38 0 0 -65z m117 -2 c2 -64 -8 -79 -27 -43
-6 11 -20 20 -30 20 -13 0 -20 -7 -20 -20 0 -11 -7 -20 -15 -20 -12 0 -15 14
-15 66 l0 65 53 -3 52 -3 2 -62z m123 52 c0 -11 -11 -15 -40 -15 -22 0 -40 -4
-40 -10 0 -5 18 -10 40 -10 29 0 40 -4 40 -15 0 -11 -11 -15 -40 -15 -22 0
-40 -4 -40 -10 0 -5 18 -10 40 -10 29 0 40 -4 40 -15 0 -11 -12 -15 -50 -15
l-50 0 0 65 0 65 50 0 c38 0 50 -4 50 -15z m578 -81 c2 -9 -1 -20 -7 -24 -7
-3 -86 -6 -176 -6 -165 1 -194 7 -183 38 4 10 44 13 184 11 158 -2 179 -4 182
-19z m-1451 -77 c-2 -7 -11 -11 -21 -9 -13 2 -16 -6 -16 -48 0 -38 -4 -50 -15
-50 -11 0 -15 12 -15 49 0 43 -2 49 -19 44 -19 -5 -36 10 -28 25 8 12 119 2
114 -11z m363 -48 c0 -71 -17 -78 -52 -21 l-23 37 -3 -37 c-2 -25 -8 -38 -18
-38 -11 0 -14 14 -14 60 0 53 2 60 20 60 11 0 20 -3 20 -7 0 -5 12 -21 25 -38
l26 -30 -6 32 c-7 35 1 57 16 48 5 -4 9 -33 9 -66z m40 0 c0 -41 -4 -59 -13
-59 -9 0 -12 17 -11 63 2 73 1 70 14 62 6 -3 10 -33 10 -66z m124 3 c1 -53 -2
-62 -16 -62 -10 0 -18 3 -18 8 0 4 -12 21 -26 37 l-25 30 5 -37 c4 -33 2 -38
-16 -38 -14 0 -18 5 -14 16 3 9 6 36 6 60 0 55 19 59 50 9 27 -43 32 -44 30
-2 -3 45 -2 49 12 45 7 -3 12 -29 12 -66z m356 -3 c0 -71 -16 -78 -55 -22
l-25 38 0 -38 c0 -26 -4 -37 -15 -37 -12 0 -15 13 -15 60 0 70 12 76 52 28
l27 -33 1 31 c0 17 3 34 6 37 15 15 24 -8 24 -64z m104 65 c9 -3 16 -15 16
-25 0 -20 -15 -26 -25 -9 -10 16 -55 12 -55 -4 0 -10 14 -16 42 -18 40 -3 43
-5 43 -33 0 -30 -1 -30 -55 -30 -44 0 -55 3 -58 17 -3 16 2 17 42 12 30 -5 46
-3 46 4 0 6 -19 12 -42 14 -40 3 -43 5 -43 33 0 26 4 31 35 36 19 4 36 7 37 8
1 0 8 -2 17 -5z m641 -15 c0 -10 -10 -13 -37 -11 -30 3 -38 0 -38 -13 0 -13 7
-15 35 -9 28 5 35 3 35 -10 0 -12 -9 -16 -35 -16 -19 0 -35 -4 -35 -10 0 -5
18 -10 40 -10 29 0 40 -4 40 -15 0 -12 -13 -15 -55 -15 l-55 0 0 59 0 60 43 4
c55 4 62 3 62 -14z m-1510 -51 c0 -60 -11 -73 -33 -38 -7 11 -19 20 -28 20 -9
0 -18 -9 -21 -20 -3 -11 -12 -20 -20 -20 -11 0 -14 6 -9 23 3 12 6 39 6 60 l0
38 52 -3 53 -3 0 -57z m125 2 c0 -47 -3 -60 -15 -60 -8 0 -15 9 -15 20 0 15
-7 20 -25 20 -18 0 -25 -5 -25 -20 0 -11 -7 -20 -15 -20 -11 0 -15 11 -15 40
0 60 17 80 67 80 l43 0 0 -60z m410 40 c0 -21 -15 -27 -25 -10 -3 6 -17 10
-31 10 -21 0 -24 -5 -24 -35 0 -31 3 -35 25 -35 14 0 25 5 25 10 0 6 -7 10
-15 10 -8 0 -15 5 -15 10 0 6 14 10 31 10 28 0 30 -2 27 -32 -3 -32 -4 -33
-53 -33 l-50 0 -3 58 -3 57 56 0 c48 0 55 -2 55 -20z m110 -40 c0 -50 -3 -60
-17 -60 -16 0 -18 8 -15 60 3 43 8 60 18 60 10 0 14 -15 14 -60z m358 48 c-3
-7 -11 -13 -19 -13 -10 0 -15 -15 -17 -47 -2 -34 -7 -48 -18 -48 -10 0 -14 13
-14 50 0 42 -3 50 -16 48 -10 -2 -19 3 -21 10 -3 9 11 12 52 12 41 0 56 -3 53
-12z m389 0 c-2 -7 -11 -12 -21 -10 -13 2 -16 -6 -16 -48 0 -38 -4 -50 -15
-50 -11 0 -15 12 -15 49 0 39 -3 49 -16 47 -9 0 -19 5 -21 12 -3 9 11 12 52
12 41 0 55 -3 52 -12z"/>
<path d="M2370 893 l0 -88 150 3 150 3 0 85 0 84 -150 0 -150 0 0 -87z m103
60 c4 -4 -5 -19 -20 -35 l-27 -28 22 -16 c21 -15 30 -44 14 -44 -11 0 -62 54
-62 65 0 10 51 65 60 65 4 0 10 -3 13 -7z m77 -2 c0 -22 -51 -121 -60 -116 -5
3 1 29 15 62 14 30 25 57 25 59 0 2 5 4 10 4 6 0 10 -4 10 -9z m52 -18 c35
-34 35 -43 -2 -78 -38 -36 -53 -24 -17 13 l27 28 -25 24 c-24 23 -32 40 -18
40 4 0 20 -12 35 -27z"/>
<path d="M1292 788 c2 -28 8 -34 31 -36 25 -3 27 -1 27 32 0 33 -2 36 -31 36
-28 0 -30 -2 -27 -32z"/>
<path d="M1807 813 c-14 -13 -6 -23 18 -23 16 0 25 6 25 15 0 15 -31 21 -43 8z"/>
<path d="M1920 805 c0 -10 10 -15 30 -15 20 0 30 5 30 15 0 10 -10 15 -30 15
-20 0 -30 -5 -30 -15z"/>
<path d="M2356 749 c3 -5 77 -9 165 -9 87 0 159 4 159 9 0 5 -74 9 -165 9 -94
0 -162 -4 -159 -9z"/>
<path d="M1287 663 c-17 -16 -5 -33 23 -33 23 0 30 4 30 20 0 14 -7 20 -23 20
-13 0 -27 -3 -30 -7z"/>
<path d="M1422 658 c-19 -19 -14 -28 13 -28 18 0 25 5 25 20 0 22 -20 26 -38
8z"/>
<path d="M615 820 c-3 -5 -17 -10 -30 -10 -13 0 -32 -11 -43 -25 -17 -21 -19
-36 -15 -103 4 -67 8 -80 30 -101 24 -21 33 -23 97 -18 39 3 80 7 91 10 11 2
23 0 26 -5 3 -5 13 -2 22 6 8 9 21 16 27 16 6 0 9 4 5 9 -3 5 0 13 6 17 7 4 9
3 5 -4 -3 -6 3 -13 14 -17 11 -3 20 -11 20 -16 0 -17 59 -10 69 9 13 25 19
141 9 179 -13 49 -36 56 -160 50 -64 -3 -106 -2 -102 4 3 5 0 9 -5 9 -6 0 -11
-5 -11 -12 0 -9 -3 -9 -12 0 -15 15 -35 16 -43 2z m103 -42 c19 -19 15 -48 -8
-48 -11 0 -20 5 -20 10 0 6 -20 10 -45 10 -38 0 -45 -3 -45 -20 0 -16 8 -19
63 -22 l62 -3 0 -50 0 -50 -80 0 c-80 0 -80 0 -83 28 -2 19 1 27 12 27 8 0 18
-4 21 -10 10 -17 95 -13 95 5 0 10 -16 15 -62 17 l-63 3 -3 44 c-5 68 -1 71
76 71 39 0 73 -5 80 -12z m199 0 c6 -8 7 -37 4 -70 -4 -32 -3 -65 2 -73 11
-20 2 -45 -16 -45 -7 0 -23 14 -35 30 -17 22 -31 30 -53 30 -27 0 -30 -3 -27
-27 2 -22 -1 -28 -17 -28 -18 0 -20 8 -23 98 l-3 97 79 0 c52 0 83 -4 89 -12z"/>
<path d="M790 720 c0 -29 2 -30 45 -30 43 0 45 1 45 30 0 29 -2 30 -45 30 -43
0 -45 -1 -45 -30z"/>
</g>
</svg>
